<?xml version="1.0" encoding="UTF-8"?>
<svg version="1.1" xmlns="http://www.w3.org/2000/svg" width="55" height="50">
<path d="M0 0 C18.15 0 36.3 0 55 0 C55 16.5 55 33 55 50 C36.85 50 18.7 50 0 50 C0 33.5 0 17 0 0 Z " fill="#4252FE" transform="translate(0,0)"/>
<path d="M0 0 C6.27 0 12.54 0 19 0 C19 16.5 19 33 19 50 C13.06 50 7.12 50 1 50 C5 47 5 47 6.78125 45.67578125 C12.59154887 41.06715783 15.53842639 36.93643912 16.4140625 29.46875 C16.71754833 21.48228075 16.24284987 15.25209847 11 9 C8.80429462 6.77978898 6.5097166 4.85281091 4 3 C2.68 2.01 1.36 1.02 0 0 Z " fill="#EAF2FE" transform="translate(36,0)"/>
<path d="M0 0 C6.27 0 12.54 0 19 0 C15 3 15 3 11.625 4.9375 C6.01245581 8.9499236 2.9047998 15.76608947 1.48828125 22.39453125 C1.10798012 29.67270798 4.04922263 36.8383953 7.8125 42.9375 C10.64668746 45.60973389 13.54418975 47.20563698 17 49 C17 49.33 17 49.66 17 50 C11.39 50 5.78 50 0 50 C0 33.5 0 17 0 0 Z " fill="#EBF2FE" transform="translate(0,0)"/>
<path d="M0 0 C1.99954746 -0.04254356 4.00041636 -0.04080783 6 0 C7 1 7 1 7.09765625 4.59765625 C7.0909822 6.08596867 7.07902183 7.57426432 7.0625 9.0625 C7.05798828 9.82111328 7.05347656 10.57972656 7.04882812 11.36132812 C7.0370068 13.24091871 7.01907078 15.12046899 7 17 C5.0625 17.5625 5.0625 17.5625 3 18 C2 17 2 17 1.90234375 14.27734375 C1.91394531 13.17519531 1.92554688 12.07304688 1.9375 10.9375 C1.94652344 9.83277344 1.95554687 8.72804688 1.96484375 7.58984375 C1.97644531 6.73519531 1.98804688 5.88054688 2 5 C1.01 4.67 0.02 4.34 -1 4 C-0.67 2.68 -0.34 1.36 0 0 Z " fill="#E6EDFE" transform="translate(23,20)"/>
<path d="M0 0 C2.475 0.495 2.475 0.495 5 1 C4.67 1.99 4.34 2.98 4 4 C2.68 4 1.36 4 0 4 C0 2.68 0 1.36 0 0 Z " fill="#E5EDFE" transform="translate(25,13)"/>
</svg>
